<svg width="59" height="58" viewBox="0 0 59 58" fill="none" xmlns="http://www.w3.org/2000/svg">
<rect x="1" y="1" width="57" height="56" rx="28" stroke="#F66639" stroke-width="2"/>
<path d="M29.688 40.7293L29.5 40.6929L29.312 40.7293C26.2745 41.3147 23.407 40.9892 21.3122 39.374C19.2285 37.7674 17.678 34.7053 17.678 29.3176C17.678 23.8078 18.9662 21.5693 20.6628 20.7517C21.5502 20.3241 22.6978 20.1996 24.1581 20.362C25.6166 20.5242 27.2996 20.9622 29.1968 21.5717L29.53 21.6788L29.8559 21.5531C33.0277 20.3303 35.8786 19.8619 37.8812 20.7626C39.759 21.6072 41.322 23.8896 41.322 29.3176C41.322 34.7053 39.7716 37.7674 37.6878 39.374C35.593 40.9892 32.7254 41.3147 29.688 40.7293Z" stroke="#F66639" stroke-width="1.8"/>
<path d="M29.5003 21.3111C29.5003 18.2318 28.2222 17 25.6661 17" stroke="#F66639" stroke-width="1.8" stroke-linecap="round" stroke-linejoin="round"/>
</svg>
