<svg width="72" height="72" viewBox="0 0 72 72" fill="none" xmlns="http://www.w3.org/2000/svg">
<rect x="1" y="1" width="70" height="70" rx="35" fill="#9B9B9B"/>
<rect x="1" y="1" width="70" height="70" rx="35" stroke="#C8C8C8" stroke-width="2"/>
<path d="M28 46.5C28 42.0817 31.5817 38.5 36 38.5C40.4183 38.5 44 42.0817 44 46.5H42C42 43.1863 39.3137 40.5 36 40.5C32.6863 40.5 30 43.1863 30 46.5H28ZM36 37.5C32.685 37.5 30 34.815 30 31.5C30 28.185 32.685 25.5 36 25.5C39.315 25.5 42 28.185 42 31.5C42 34.815 39.315 37.5 36 37.5ZM36 35.5C38.21 35.5 40 33.71 40 31.5C40 29.29 38.21 27.5 36 27.5C33.79 27.5 32 29.29 32 31.5C32 33.71 33.79 35.5 36 35.5Z" fill="#C8C8C8"/>
</svg>
