<svg width="36" height="36" viewBox="0 0 36 36" fill="none" xmlns="http://www.w3.org/2000/svg">
<rect x="1" y="1" width="34" height="34" rx="17" fill="#9B9B9B"/>
<rect x="1" y="1" width="34" height="34" rx="17" stroke="#C8C8C8" stroke-width="2"/>
<path d="M10 28.5C10 24.0817 13.5817 20.5 18 20.5C22.4183 20.5 26 24.0817 26 28.5H24C24 25.1863 21.3137 22.5 18 22.5C14.6863 22.5 12 25.1863 12 28.5H10ZM18 19.5C14.685 19.5 12 16.815 12 13.5C12 10.185 14.685 7.5 18 7.5C21.315 7.5 24 10.185 24 13.5C24 16.815 21.315 19.5 18 19.5ZM18 17.5C20.21 17.5 22 15.71 22 13.5C22 11.29 20.21 9.5 18 9.5C15.79 9.5 14 11.29 14 13.5C14 15.71 15.79 17.5 18 17.5Z" fill="#C8C8C8"/>
</svg>
