<svg width="23" height="23" viewBox="0 0 23 23" fill="none" xmlns="http://www.w3.org/2000/svg">
<path d="M1.91656 11.4996C1.91656 10.6711 2.02169 9.86714 2.21935 9.10039C3.26419 9.15455 4.30136 8.63448 4.86037 7.66625C5.41896 6.69874 5.35129 5.54152 4.78314 4.66397C5.92579 3.54107 7.3487 2.70246 8.93734 2.2627C9.41284 3.19469 10.3818 3.83292 11.4999 3.83292C12.618 3.83292 13.587 3.19469 14.0625 2.2627C15.6511 2.70246 17.074 3.54107 18.2167 4.66397C17.6485 5.54152 17.5808 6.69874 18.1394 7.66625C18.6984 8.63448 19.7356 9.15455 20.7805 9.10039C20.9781 9.86714 21.0832 10.6711 21.0832 11.4996C21.0832 12.328 20.9781 13.132 20.7805 13.8988C19.7356 13.8446 18.6984 14.3647 18.1394 15.3329C17.5808 16.3004 17.6485 17.4576 18.2167 18.3352C17.074 19.458 15.6511 20.2967 14.0625 20.7365C13.587 19.8045 12.618 19.1662 11.4999 19.1662C10.3818 19.1662 9.41284 19.8045 8.93734 20.7365C7.3487 20.2967 5.92579 19.458 4.78314 18.3352C5.35129 17.4576 5.41896 16.3004 4.86037 15.3329C4.30136 14.3647 3.26419 13.8446 2.21935 13.8988C2.02169 13.132 1.91656 12.328 1.91656 11.4996ZM6.52025 14.3746C7.1241 15.4205 7.2972 16.6229 7.06107 17.7515C7.45187 18.0296 7.86786 18.2706 8.30375 18.4708C9.16325 17.7013 10.2916 17.2496 11.4999 17.2496C12.7082 17.2496 13.8365 17.7013 14.696 18.4708C15.1319 18.2706 15.5479 18.0296 15.9387 17.7515C15.7026 16.6229 15.8756 15.4205 16.4796 14.3746C17.0833 13.3287 18.0381 12.5777 19.1335 12.2178C19.1554 11.9804 19.1666 11.7409 19.1666 11.4996C19.1666 11.2584 19.1554 11.0188 19.1335 10.7814C18.0381 10.4215 17.0833 9.67049 16.4796 8.62458C15.8756 7.57869 15.7026 6.37629 15.9387 5.24764C15.5479 4.96956 15.1319 4.72862 14.696 4.52838C13.8365 5.29784 12.7082 5.74958 11.4999 5.74958C10.2916 5.74958 9.16325 5.29784 8.30375 4.52838C7.86786 4.72862 7.45187 4.96956 7.06107 5.24764C7.2972 6.37629 7.1241 7.57869 6.52025 8.62458C5.91642 9.67049 4.96171 10.4215 3.8663 10.7814C3.84432 11.0188 3.83323 11.2584 3.83323 11.4996C3.83323 11.7409 3.84432 11.9804 3.8663 12.2178C4.96171 12.5777 5.91642 13.3287 6.52025 14.3746ZM11.4999 14.3746C9.91204 14.3746 8.6249 13.0874 8.6249 11.4996C8.6249 9.9118 9.91204 8.62458 11.4999 8.62458C13.0878 8.62458 14.3749 9.9118 14.3749 11.4996C14.3749 13.0874 13.0878 14.3746 11.4999 14.3746ZM11.4999 12.4579C12.0292 12.4579 12.4582 12.0289 12.4582 11.4996C12.4582 10.9703 12.0292 10.5412 11.4999 10.5412C10.9706 10.5412 10.5416 10.9703 10.5416 11.4996C10.5416 12.0289 10.9706 12.4579 11.4999 12.4579Z" fill="#EDEDED"/>
</svg>
