<svg width="59" height="58" viewBox="0 0 59 58" fill="none" xmlns="http://www.w3.org/2000/svg">
<rect x="1" y="1" width="57" height="56" rx="28" stroke="#F66639" stroke-width="2"/>
<path d="M23.4365 23H19.7456C19.3088 23 18.9547 23.3224 18.9547 23.72V34.28C18.9547 34.6777 19.3088 35 19.7456 35H23.4365C23.8733 35 24.2274 34.6777 24.2274 34.28V23.72C24.2274 23.3224 23.8733 23 23.4365 23Z" stroke="#F66639" stroke-width="1.8" stroke-linecap="round" stroke-linejoin="round"/>
<path d="M39.2545 23H35.5636C35.1268 23 34.7727 23.3224 34.7727 23.72V34.28C34.7727 34.6777 35.1268 35 35.5636 35H39.2545C39.6914 35 40.0455 34.6777 40.0455 34.28V23.72C40.0455 23.3224 39.6914 23 39.2545 23Z" stroke="#F66639" stroke-width="1.8" stroke-linecap="round" stroke-linejoin="round"/>
<path d="M15 31.8799V26.1199C15 25.7223 15.3541 25.3999 15.7909 25.3999H18.1636C18.6004 25.3999 18.9545 25.7223 18.9545 26.1199V31.8799C18.9545 32.2776 18.6004 32.5999 18.1636 32.5999H15.7909C15.3541 32.5999 15 32.2776 15 31.8799Z" stroke="#F66639" stroke-width="1.8" stroke-linecap="round" stroke-linejoin="round"/>
<path d="M44.0001 31.8799V26.1199C44.0001 25.7223 43.646 25.3999 43.2091 25.3999H40.8364C40.3996 25.3999 40.0455 25.7223 40.0455 26.1199V31.8799C40.0455 32.2776 40.3996 32.5999 40.8364 32.5999H43.2091C43.646 32.5999 44.0001 32.2776 44.0001 31.8799Z" stroke="#F66639" stroke-width="1.8" stroke-linecap="round" stroke-linejoin="round"/>
<path d="M24.2274 29H34.7729" stroke="#F66639" stroke-width="1.8" stroke-linecap="round" stroke-linejoin="round"/>
</svg>
