<svg width="45" height="44" viewBox="0 0 45 44" fill="none" xmlns="http://www.w3.org/2000/svg">
<rect x="1" y="1" width="43" height="42" rx="21" stroke="#F66639" stroke-width="2"/>
<path d="M16.4365 16H12.7456C12.3088 16 11.9547 16.3224 11.9547 16.72V27.28C11.9547 27.6777 12.3088 28 12.7456 28H16.4365C16.8733 28 17.2274 27.6777 17.2274 27.28V16.72C17.2274 16.3224 16.8733 16 16.4365 16Z" stroke="#F66639" stroke-width="1.8" stroke-linecap="round" stroke-linejoin="round"/>
<path d="M32.2545 16H28.5636C28.1268 16 27.7727 16.3224 27.7727 16.72V27.28C27.7727 27.6777 28.1268 28 28.5636 28H32.2545C32.6914 28 33.0454 27.6777 33.0454 27.28V16.72C33.0454 16.3224 32.6914 16 32.2545 16Z" stroke="#F66639" stroke-width="1.8" stroke-linecap="round" stroke-linejoin="round"/>
<path d="M8 24.8799V19.1199C8 18.7223 8.3541 18.3999 8.79091 18.3999H11.1636C11.6004 18.3999 11.9545 18.7223 11.9545 19.1199V24.8799C11.9545 25.2776 11.6004 25.5999 11.1636 25.5999H8.79091C8.3541 25.5999 8 25.2776 8 24.8799Z" stroke="#F66639" stroke-width="1.8" stroke-linecap="round" stroke-linejoin="round"/>
<path d="M37.0001 24.8799V19.1199C37.0001 18.7223 36.646 18.3999 36.2092 18.3999H33.8364C33.3996 18.3999 33.0455 18.7223 33.0455 19.1199V24.8799C33.0455 25.2776 33.3996 25.5999 33.8364 25.5999H36.2092C36.646 25.5999 37.0001 25.2776 37.0001 24.8799Z" stroke="#F66639" stroke-width="1.8" stroke-linecap="round" stroke-linejoin="round"/>
<path d="M17.2274 22H27.7729" stroke="#F66639" stroke-width="1.8" stroke-linecap="round" stroke-linejoin="round"/>
</svg>
