<svg width="120" height="120" viewBox="0 0 120 120" fill="none" xmlns="http://www.w3.org/2000/svg">
<rect x="1" y="1" width="118" height="118" rx="59" fill="#9B9B9B"/>
<rect x="1" y="1" width="118" height="118" rx="59" stroke="#C8C8C8" stroke-width="2"/>
<path d="M42 84C42 73.901 50.0589 65.7143 60 65.7143C69.9412 65.7143 78 73.901 78 84H73.5C73.5 76.4258 67.4558 70.2857 60 70.2857C52.5442 70.2857 46.5 76.4258 46.5 84H42ZM60 63.4286C52.5412 63.4286 46.5 57.2914 46.5 49.7143C46.5 42.1371 52.5412 36 60 36C67.4588 36 73.5 42.1371 73.5 49.7143C73.5 57.2914 67.4588 63.4286 60 63.4286ZM60 58.8571C64.9725 58.8571 69 54.7657 69 49.7143C69 44.6629 64.9725 40.5714 60 40.5714C55.0275 40.5714 51 44.6629 51 49.7143C51 54.7657 55.0275 58.8571 60 58.8571Z" fill="#C8C8C8"/>
</svg>
