<svg width="45" height="44" viewBox="0 0 45 44" fill="none" xmlns="http://www.w3.org/2000/svg">
<rect x="1" y="1" width="43" height="42" rx="21" stroke="#F66639" stroke-width="2"/>
<path d="M22.688 33.7293L22.5 33.6929L22.312 33.7293C19.2745 34.3147 16.407 33.9892 14.3122 32.374C12.2285 30.7674 10.678 27.7053 10.678 22.3176C10.678 16.8078 11.9662 14.5693 13.6628 13.7517C14.5502 13.3241 15.6978 13.1996 17.1581 13.362C18.6166 13.5242 20.2996 13.9622 22.1968 14.5717L22.53 14.6788L22.8559 14.5531C26.0277 13.3303 28.8786 12.8619 30.8812 13.7626C32.759 14.6072 34.322 16.8896 34.322 22.3176C34.322 27.7053 32.7716 30.7674 30.6878 32.374C28.593 33.9892 25.7254 34.3147 22.688 33.7293Z" stroke="#F66639" stroke-width="1.8"/>
<path d="M22.5002 14.3111C22.5002 11.2318 21.2222 10 18.6661 10" stroke="#F66639" stroke-width="1.8" stroke-linecap="round" stroke-linejoin="round"/>
</svg>
