<svg width="36" height="36" viewBox="0 0 36 36" fill="none" xmlns="http://www.w3.org/2000/svg">
<rect x="0.5" y="0.5" width="34.6" height="35" rx="17.3" stroke="#EDEDED"/>
<path d="M9.06364 13.5091C10.7091 10.2409 14.0908 8 18 8C20.6954 8 22.959 8.99095 24.6909 10.6045L21.8227 13.4727C20.7864 12.4819 19.4681 11.9773 18 11.9773C15.3954 11.9773 13.1908 13.7364 12.4046 16.1C12.2045 16.7 12.0909 17.3409 12.0909 18C12.0909 18.6591 12.2045 19.3 12.4046 19.9C13.1908 22.2636 15.3954 24.0227 18 24.0227C19.3454 24.0227 20.4909 23.6682 21.3864 23.0682C22.4454 22.3591 23.15 21.3 23.3818 20.05H18V16.1818H27.4181C27.5364 16.8363 27.6 17.5182 27.6 18.2273C27.6 21.2727 26.5091 23.8363 24.6181 25.5773C22.9636 27.1046 20.7 28 18 28C14.0908 28 10.7091 25.7591 9.06364 22.4909C8.38638 21.1409 8 19.6136 8 18C8 16.3864 8.38638 14.8591 9.06364 13.5091Z" fill="#EDEDED"/>
</svg>
