<svg width="35" height="35" viewBox="0 0 35 35" fill="none" xmlns="http://www.w3.org/2000/svg">
<rect x="0.5" y="0.5" width="34" height="34" rx="17" stroke="#EDEDED"/>
<path d="M17.6407 12.7836C16.7647 12.7836 15.4087 11.7876 13.9807 11.8236C12.0967 11.8476 10.3687 12.9156 9.39666 14.6076C7.44066 18.0036 8.89266 23.0196 10.8007 25.7796C11.7367 27.1236 12.8407 28.6356 14.3047 28.5876C15.7087 28.5276 16.2367 27.6756 17.9407 27.6756C19.6327 27.6756 20.1127 28.5876 21.6007 28.5516C23.1127 28.5276 24.0727 27.1836 24.9967 25.8276C26.0647 24.2676 26.5087 22.7556 26.5327 22.6716C26.4967 22.6596 23.5927 21.5436 23.5567 18.1836C23.5327 15.3756 25.8487 14.0316 25.9567 13.9716C24.6367 12.0396 22.6087 11.8236 21.9007 11.7756C20.0527 11.6316 18.5047 12.7836 17.6407 12.7836ZM20.7607 9.95162C21.5407 9.01562 22.0567 7.70763 21.9127 6.41162C20.7967 6.45962 19.4527 7.15562 18.6487 8.09162C17.9287 8.91962 17.3047 10.2516 17.4727 11.5236C18.7087 11.6196 19.9807 10.8876 20.7607 9.95162Z" fill="#EDEDED"/>
</svg>
